<svg height="512" viewBox="0 0 512 512" width="512" xmlns="http://www.w3.org/2000/svg"><g><g><path d="m160 280h-24l-8-24 24-16 80-16h104l96 40 16 24-24 16-16-16-8 8-16-24-32-8v48l24 24-24 56 16 32-16 16-48-48 32-48-56-40-24 24-40-32 8-8h24l8-16h24v-24h-48l-32 16-8 16-16-16z" fill="#fad6c6"/><g><path d="m168 272-8 8h-24a77.254 77.254 0 0 0 22.627 54.627l129.226 129.226a82.421 82.421 0 0 0 9.508 8.147h62.639z" fill="#f98800"/><path d="m368 456-192-192-8 8 192 200h-62.639a82.429 82.429 0 0 0 28.793 13.538 82.429 82.429 0 0 0 20 2.462h13.208a20.865 20.865 0 0 0 14.754-6.111 15.635 15.635 0 0 0 -6.116-25.889z" fill="#f9a64b"/></g><g><path d="m224 288-8 8 40 32 16-16-24-24z" fill="#333"/><path d="m304 392 48 48 16-16-16-32-32-24z" fill="#333"/><path d="m256 272 24 32 56 40 40-8-24-24-72-40z" fill="#35495e"/><g fill="#dff1fc"><path d="m326.343 378.059h11.314v67.882h-11.314z" transform="matrix(.707 -.707 .707 .707 -194.087 355.431)"/><path d="m256 328 8-8-40-32-8 8z"/></g></g><path d="m232 216v40h48v16l16 16 8 24 32 16 24-8-8-48 24 16 16-48-56-16-72-8z" fill="#dff1fc"/><circle cx="320" cy="144" fill="#fad6c6" r="104"/><g opacity=".4"><path d="m304.331 227.2a147.406 147.406 0 0 1 -81.286-45.511 104.014 104.014 0 0 0 173.144 33.091c-.1-.083-.2-.173-.3-.256a147.406 147.406 0 0 1 -91.558 12.676z" fill="#eaaa94"/></g><path d="m320 40a104.041 104.041 0 0 0 -99.164 72.58 250.881 250.881 0 0 0 127.2-14.249c-5.146 7.835-9 16.6-14.143 24.439 6.264 22.8 11.925 45.442 18.189 68.246 3.033-5.7 5.6-10.754 9.6-15.829s9.022-9.507 15.044-11.845 13.116-2.373 18.724.832 9.29 9.929 8.047 16.267c-.917 4.67-4.255 8.579-8.207 11.229s-8.516 4.214-13.02 5.749a54.951 54.951 0 0 0 13.918 17.361 103.993 103.993 0 0 0 -76.188-174.78z" fill="#333"/><path d="m418.737 191.423a7.977 7.977 0 0 0 -10.575-2.034 87.014 87.014 0 0 1 -51.533 12.611 118.985 118.985 0 0 0 16.648-47.436 7.978 7.978 0 0 0 -7.549-8.9 7.962 7.962 0 0 0 -8.327 6.92 102.633 102.633 0 0 1 -23.858 54.043c-12.785 14.892-28.357 23.29-46.371 25.03a7.973 7.973 0 0 0 -7.172 7.958 8 8 0 0 0 8.73 7.979c22.208-2.1 41.335-12.348 56.954-30.541.069-.081.133-.165.2-.246a99.955 99.955 0 0 0 16.73 1.406 103.343 103.343 0 0 0 53.856-15.153 8.023 8.023 0 0 0 2.267-11.637z" fill="#fcc200"/><path d="m240 152a8 8 0 0 1 -8-8v-8a8 8 0 0 1 16 0v8a8 8 0 0 1 -8 8z" fill="#683b11"/><path d="m320 152a8 8 0 0 1 -8-8v-8a8 8 0 0 1 16 0v8a8 8 0 0 1 -8 8z" fill="#683b11"/><path d="m280 166.613a30.532 30.532 0 0 1 -21.656-8.956 8 8 0 1 1 11.312-11.314 14.646 14.646 0 0 0 20.688 0 8 8 0 1 1 11.312 11.314 30.532 30.532 0 0 1 -21.656 8.956z" fill="#f99c78"/><path d="m427.89 196.6c7.76-15.88 20.11-41.73 20.11-60.6 0-66.27-61.73-112-128-112a120.038 120.038 0 0 0 -110.81 73.87q49.29 2.415 98.57 4.81c15.23.74 33.1 3.04 40.47 16.39 4.36 7.91 4.02 18.43 10.6 24.62 10.34 9.72 28.18.94 41.07 6.89 7.5 3.46 11.92 11.32 14.8 19.07s-3.43 15.57 1.3 22.35c1.04 1.49 10.51 3.34 11.89 4.6z" fill="#23c5f7"/><path d="m357.022 98.726a178 178 0 0 1 -76.5-68.069 120.364 120.364 0 0 0 -71.332 67.213q49.29 2.415 98.57 4.81c15.23.74 33.1 3.04 40.47 16.39 4.36 7.91 4.02 18.43 10.6 24.62 10.34 9.72 28.18.94 41.07 6.89 7.5 3.46 11.92 11.32 14.8 19.07s-3.43 15.57 1.3 22.35c1.04 1.49 10.51 3.34 11.89 4.6 7.76-15.88 20.11-41.73 20.11-60.6a102.455 102.455 0 0 0 -2.293-21.655 178.054 178.054 0 0 1 -88.685-15.619z" fill="#00a8e7"/><path d="m209 98-9-50s48 0 80 16 48 40 48 40z" fill="#fcc200"/><g><path d="m120 320h-24a24 24 0 0 0 0 48h24z" fill="#be202e"/><circle cx="120" cy="344" fill="#e22526" r="24"/><path d="m160 352h-40a8 8 0 0 1 0-16h40a8 8 0 0 1 0 16z" fill="#dff1fc"/><path d="m184 320h-24a24 24 0 0 0 0 48h24z" fill="#be202e"/><circle cx="184" cy="344" fill="#e22526" r="24"/><rect fill="#dff1fc" height="16" rx="8" width="16" x="176" y="336"/></g><g><path d="m240 440h-24a24 24 0 0 0 0 48h24z" fill="#be202e"/><circle cx="240" cy="464" fill="#e22526" r="24"/><path d="m280 472h-40a8 8 0 0 1 0-16h40a8 8 0 0 1 0 16z" fill="#dff1fc"/><path d="m304 440h-24a24 24 0 0 0 0 48h24z" fill="#be202e"/><circle cx="304" cy="464" fill="#e22526" r="24"/><rect fill="#dff1fc" height="16" rx="8" width="16" x="296" y="456"/></g><g fill="#f78663"><circle cx="240" cy="176" r="16"/><circle cx="328" cy="176" r="16"/></g></g><path d="m454.656 283.562c-3.328-4.25-16.779-27.319-19.7-27l-50.529-21.053a112.286 112.286 0 0 0 29.942-31.209q2.1-1.224 4.145-2.556c1.09.339 3.455 1.02 5.033 1.576 7.561 4.746 12.64-4.082 14.314-8.939 73.132-128.324-98-229.279-197.416-150.642-55.223-7.364-50.5-6.5-44.989 24.174 5.916 25.566 1.422 39.987 19.056 38.376-13.856 38.166-4.863 80.83 19.771 109.712-3.111-.69-43.832 8.438-70.179 13.42-17.369 2.121-20.345 6.651-40.342 19.792-9.119 3.99 2.945 24.871 4.238 32.087.092 2.794-.172 28.564.084 31.74-9.09-1.79-28.941-1.386-38.525-.389-43.017 12.179-26.619 67.267 10.489 63.349 20.15-.316 27.925 2.071 39.952-7.017 11.823 10.331 33.87 6.642 48.377 6.71l56.731 56.73c-6.913-.726-26.274-.659-33.4-.05-45.628 10.321-29.506 67.577 8.337 63.627 20.154-.316 27.913 2.071 39.95-7.017 10.391 7.779 16.81 7.04 31.22 7.018 14.563-.208 17.8 1.148 28.109-3.918 2.575.538 16.1 4.285 16.783 3.918h1.065c13.045-.477 35.532 1.812 37.083-2.944 29.628-30.2 39.673-31.823-1.931-44.043l-9.01-9.014 10.343-10.343a8 8 0 0 0 1.5-9.235l-14.341-28.681c28.949-71.895 31.987-48.032-.814-83.055v-34.44l19.06 4.765c6.963 7.98 16.648 35.88 28.94 20.3 13.674 13.519 13.442 17.048 28.031 6.279 12.975-9.439 23.784-11.951 18.623-22.028zm-134.656-43.562c-1.149 0-2.293-.028-3.433-.068a90.479 90.479 0 0 0 29.318-23.125 102.73 102.73 0 0 0 37.391-.694 96.249 96.249 0 0 1 -63.276 23.887zm-60.686 96 21.551-21.551 44.182 31.558-22.29 33.436zm-48.971-53.657-2.343 2.343-6.266-6.266 4.229-8.457 27.926-13.963h38.111v8c-23.5-.215-20.141-1.779-28.944 16-4.788.73-29.587-2.053-32.713 2.343zm170.864-125.892c20.447-2.732 28.711 10.639 24.979 29.839q-1.529 3.109-3.265 6.075a87.171 87.171 0 0 1 -46.292 9.635 118.951 118.951 0 0 0 16.371-45.427c2.78.084 5.545-.018 8.207-.122zm-61.207-124.451c86.346 1.084 149.994 75.49 103.828 154.636-.536-.163-1.114-.342-1.642-.513 1.741-8.432 2.069-19.8-4.845-29.53-17.5-28.79-44.734-7.947-54.281-20.235-8.015-22.4-9.929-30.956-28.966-37.607-7.178-12.517-42.716-43.864-72.537-50.263a112.078 112.078 0 0 1 58.443-16.488zm-43.578 39.155a131.6 131.6 0 0 1 32.971 23.6c-27.151-1.337-55.3-2.7-82.644-4.034l-.008.165-10.993-.554-6.114-33.969c15.196.893 45.208 4.002 66.788 14.792zm-45.089 35.981 86.005 4.336c37.622 4.025 18.63 27.459 40.048 41.1-4.752 39.49-34.615 79.385-75.822 79.391-48.077-20.869-70.197-77.198-50.231-124.827zm-76.212 140.4 77.671-15.536h18a112.6 112.6 0 0 0 11.576 8c-3.237.083-36.6-.534-34.426 1.085l-31.5 15.75c-2.3.356-5.452 7.121-6.633 9.659l-8.081-8.081h-.006a8.2 8.2 0 0 0 -11.444 0h-.006c-2.948 2.95-10.663 10.664-13.585 13.587h-14.921l-4.245-12.733zm-75.121 96.464a16.014 16.014 0 0 1 12-15.474c-5.089 8.666-5.38 21.788 0 30.948a16.014 16.014 0 0 1 -12-15.474zm40 16c-30.127-3.714-12.409-44.826 10.409-28.137a31.537 31.537 0 0 0 -1.375 4.137c-24.114-3.174-21.8 19.733-.017 16a35.55 35.55 0 0 0 1.38 4.158 15.941 15.941 0 0 1 -10.397 3.842zm26.659-7.184c-5.849-8.327-1.451-21.719 9.342-24.3-5.109 8.7-5.377 21.8.014 30.982a15.982 15.982 0 0 1 -9.356-6.682zm21.341-8.816c1.184-21.791 31.448-20.478 32 0-1.262 21.926-31.414 20.389-32 0zm32.044 121.2c-.677-7.237 4.5-14.5 11.868-16.515-5.009 8.652-5.255 21.682.089 30.79a16.044 16.044 0 0 1 -11.957-14.275zm39.956 14.8c-30.134-3.72-12.4-44.828 10.418-28.138a34.49 34.49 0 0 0 -1.41 4.208c-23.774-3.528-22.033 19.857 0 15.859a38.621 38.621 0 0 0 1.387 4.227 15.959 15.959 0 0 1 -10.395 3.844zm26.656-7.178c-5.885-8.084-1.3-21.648 9.269-24.161-5.026 8.662-5.272 21.716.09 30.835a16 16 0 0 1 -9.359-6.674zm37.344 7.178c-21.99-1.248-20.314-31.475 0-32 21.99 1.248 20.314 31.475 0 32zm73.188-12.5-12.5 12.5h-27.713l-4.638-1.159c9.79-18.639-1.038-40.585-19.84-45.7-10.624-2.032-35.153-2.047-43.188.85l-65.131-65.131c19.446-15.989 13.447-45.489-7.734-54.345-9.483-4.3-41.041-3.1-47.252-.64l-5.192-5.188v-20.687c4.7-.57 18.049 1.763 21.682-2.368h.006l10.312-10.318 10.343 10.343 15.991 15.991 40 40h.005c25.868 25.868 78.33 78.332 104 104 13.019 12.652 14.604 17.874 30.849 21.852zm47.832-173.794c-5.808-5.072-15.638-20.423-23.777-10.263-3.845-5.306-11.954-20.176-15.875-19.347-11.62-1.7-34.487-12.087-39.193-5.58-4.02 6.16-1.5 5.427-2.176 11.3.883 57.021-6.51 37.848 22.515 68.008-27.748 68.4-27.776 42.992-8.248 84.593l-6.266 6.269-37.706-37.706c37.047-58.3 40.085-42.573 4.67-68.979-53.157-37.621-32.6-31.585-70.964 2.685l-28.686-28.686c34.991-.732 31.919 5 41.63-16 33.542 1.007 26.146-.988 27.056-28.666 25 7.756 55.208 5.656 79-5.751l59.692 24.87 10.218 15.328z"/></g></svg>